HIERARCHY
ROOT RootJoint
{
    OFFSET   0.000000   0.000000   0.000000
    CHANNELS 6 Xposition Yposition Zposition Xrotation Yrotation Zrotation
    JOINT pelvis_lowerback
    {
        OFFSET   0.000000   0.093605   0.000000
        CHANNELS 3 Xrotation Yrotation Zrotation
        JOINT lowerback_torso
        {
            OFFSET   0.000000   0.100000   0.000000
            CHANNELS 3 Xrotation Yrotation Zrotation
            JOINT torso_head
            {
                OFFSET   0.000000   0.282350   0.000000
                CHANNELS 3 Xrotation Yrotation Zrotation
                End Site
                {
                    OFFSET   0.000000   0.192650   0.000000
                }
            }
            JOINT rTorso_Clavicle
            {
                OFFSET  -0.001000   0.157500   0.000000
                CHANNELS 3 Xrotation Yrotation Zrotation
                JOINT rShoulder
                {
                    OFFSET  -0.117647   0.000000   0.000000
                    CHANNELS 3 Xrotation Yrotation Zrotation
                    JOINT rElbow
                    {
                        OFFSET  -0.245000   0.000000   0.000000
                        CHANNELS 3 Xrotation Yrotation Zrotation
                        JOINT rWrist
                        {
                            OFFSET  -0.240000   0.000000   0.000000
                            CHANNELS 3 Xrotation Yrotation Zrotation
                            End Site
                            {
                                OFFSET  -0.116353  -0.002500   0.000000
                            }
                        }
                    }
                }
            }
            JOINT lTorso_Clavicle
            {
                OFFSET   0.001000   0.157500   0.000000
                CHANNELS 3 Xrotation Yrotation Zrotation
                JOINT lShoulder
                {
                    OFFSET   0.117647   0.000000   0.000000
                    CHANNELS 3 Xrotation Yrotation Zrotation
                    JOINT lElbow
                    {
                        OFFSET   0.245000   0.000000   0.000000
                        CHANNELS 3 Xrotation Yrotation Zrotation
                        JOINT lWrist
                        {
                            OFFSET   0.240000   0.000000   0.000000
                            CHANNELS 3 Xrotation Yrotation Zrotation
                            End Site
                            {
                                OFFSET   0.116353  -0.002500   0.000000
                            }
                        }
                    }
                }
            }
        }
    }
    JOINT rHip
    {
        OFFSET  -0.100000  -0.051395   0.000000
        CHANNELS 3 Xrotation Yrotation Zrotation
        JOINT rKnee
        {
            OFFSET   0.000000  -0.410000   0.000000
            CHANNELS 3 Xrotation Yrotation Zrotation
            JOINT rAnkle
            {
                OFFSET   0.000000  -0.390000   0.000000
                CHANNELS 3 Xrotation Yrotation Zrotation
                JOINT rToeJoint
                {
                    OFFSET   0.000000  -0.050000   0.130000
                    CHANNELS 3 Xrotation Yrotation Zrotation
                    End Site
                    {
                        OFFSET  -0.010000   0.002000   0.060000
                    }
                }
            }
        }
    }
    JOINT lHip
    {
        OFFSET   0.100000  -0.051395   0.000000
        CHANNELS 3 Xrotation Yrotation Zrotation
        JOINT lKnee
        {
            OFFSET   0.000000  -0.410000   0.000000
            CHANNELS 3 Xrotation Yrotation Zrotation
            JOINT lAnkle
            {
                OFFSET   0.000000  -0.390000   0.000000
                CHANNELS 3 Xrotation Yrotation Zrotation
                JOINT lToeJoint
                {
                    OFFSET   0.000000  -0.050000   0.130000
                    CHANNELS 3 Xrotation Yrotation Zrotation
                    End Site
                    {
                        OFFSET   0.010000   0.002000   0.060000
                    }
                }
            }
        }
    }
}
MOTION
Frames: 5
Frame Time:   0.008333
 -2.451629   0.908409   3.922572  -1.341450  -1.722859   0.174948   6.153915   0.428269  -0.309807   2.275510  -1.751765   1.864954  -1.406211  -0.115647  -0.398025   1.965296  -3.255097   5.179881   7.355089   6.286640  54.132916  -0.000132  13.280060  -0.000282   1.712639   2.016419   3.360483   2.832298   2.067599  -2.133491   9.511749 -12.583484 -56.222783   0.000224 -17.199536  -0.000306   4.865634  -2.738337  -6.986182   0.370334  -1.117753  -5.021078  15.093004   0.001304  -0.002013 -13.316745  -6.749025   3.258679  -0.451381  -0.000115   0.000174   0.158390  -4.949138   5.451434  14.391812   0.001045  -0.001845 -14.104403  -0.510585   2.159020   0.821164  -0.000131   0.000021
 -2.452075   0.908686   3.922112  -1.319680  -1.651331   0.178556   6.191755   0.426812  -0.278988   2.383079  -1.756023   1.901876  -1.285230  -0.187515  -0.368249   1.976926  -3.245443   5.096572   7.276410   6.172503  54.080110  -0.000132  13.317055  -0.000231   1.687343   2.071951   3.331493   2.849257   2.007395  -2.103113   9.450237 -12.546349 -56.329672   0.000249 -17.340379  -0.000213   4.882688  -2.717766  -6.985242   0.438815  -1.141245  -4.986913  14.861941   0.001090  -0.001732 -13.156619  -6.803534   3.308480  -0.476826  -0.000074   0.000139   0.300439  -4.982634   5.504341  13.968592   0.000977  -0.001586 -13.905355  -0.592033   2.161849   0.898908  -0.000136  -0.000021
 -2.452446   0.908924   3.921669  -1.300481  -1.576686   0.181713   6.231909   0.418094  -0.237781   2.492090  -1.766556   1.941971  -1.166662  -0.255723  -0.337748   1.987424  -3.238409   5.009394   7.203267   6.063814  54.020991  -0.000129  13.351150  -0.000189   1.660377   2.127152   3.285482   2.862591   1.947607  -2.077269   9.389502 -12.514698 -56.432564   0.000253 -17.474652  -0.000126   4.898405  -2.714419  -6.990450   0.497058  -1.166499  -4.957861  14.661097   0.000902  -0.001490 -13.014972  -6.858237   3.357943  -0.499798  -0.000044   0.000111   0.439666  -5.015569   5.552391  13.559093   0.000896  -0.001384 -13.724774  -0.671003   2.161720   0.970270  -0.000132  -0.000048
 -2.452757   0.909136   3.921248  -1.281337  -1.503796   0.183919   6.273503   0.406125  -0.190582   2.598024  -1.780087   1.984441  -1.054706  -0.319462  -0.307537   1.998364  -3.233254   4.923677   7.136355   5.960905  53.961333  -0.000122  13.382140  -0.000156   1.634698   2.176582   3.231052   2.873009   1.889499  -2.054403   9.330705 -12.486557 -56.529274   0.000242 -17.600908  -0.000052   4.912848  -2.717772  -6.996311   0.548048  -1.191261  -4.932213  14.477598   0.000744  -0.001283 -12.884792  -6.911063   3.404936  -0.520287  -0.000023   0.000089   0.569937  -5.045261   5.596151  13.171287   0.000808  -0.001220 -13.557038  -0.744998   2.161382   1.035460  -0.000125  -0.000062
 -2.453036   0.909384   3.920871  -1.268649  -1.432650   0.212595   6.319027   0.390678  -0.164819   2.702184  -1.796768   2.019819  -0.949216  -0.379005  -0.278964   2.010355  -3.229947   4.849532   7.075168   5.864078  53.908101  -0.000110  13.410140  -0.000129   1.610472   2.218796   3.176764   2.880990   1.833249  -2.032197   9.274942 -12.460385 -56.615772   0.000223 -17.718525   0.000007   4.926877  -2.720491  -6.996136   0.608290  -1.215804  -4.936496  14.294214   0.000612  -0.001115 -12.760620  -6.963135   3.442655  -0.537050  -0.000010   0.000071   0.671628  -5.053473   5.602090  12.844687   0.000684  -0.001130 -13.349797  -0.796962   2.163373   1.093259  -0.000113  -0.000050
